<?xml version="1.0" encoding="UTF-8"?>
<svg xmlns="http://www.w3.org/2000/svg" viewBox="0 0 1024 1024" width="1024" height="1024">
<path d="M737.37 167.39C739.76 170.46 738.78 175.29 738.78 179.08C738.78 188.12 738.78 197.16 738.78 206.2C738.78 242.36 738.78 278.52 738.78 314.68C738.78 380.77 738.78 446.85 738.78 512.94C738.78 533.82 738.78 554.71 738.78 575.59C738.78 582.95 740.15 597.94 738.6 604.41C737.74 608 734.02 608.49 731.32 610.22C724.99 614.28 718.03 617.38 711.69 621.44C702.61 627.26 692.42 631.26 683.28 636.99C672.03 644.05 659.67 649.73 647.74 655.69C640.54 659.3 626.46 668.22 619.08 668.64C619.08 601 619.08 533.35 619.08 465.71C614.36 464.28 610.36 465.71 605.52 465.71C600.94 465.71 596.79 465.93 592.39 466.62C589.05 467.14 585.51 466.15 582.17 466.67C577.83 467.35 573.36 467.65 569.04 468.52C567.02 475.32 567.64 482.42 567.64 489.56C567.64 500.78 567.64 512 567.64 523.22C567.64 561.25 567.64 599.28 567.64 637.31C567.64 651.03 567.64 664.74 567.64 678.46C567.64 682.3 568.75 691.66 567.15 694.79C565.55 697.91 551.34 702.97 547.71 704.35C532.19 710.27 517.4 718.08 501.89 723.99C491.45 727.97 481.46 733.1 471.03 737.08C466.62 738.76 460.97 742.67 456.36 742.05C456.36 681.58 456.36 621.1 456.36 560.63C456.36 549.72 456.36 538.81 456.36 527.9C456.36 521 456.88 513.83 455.6 507.15C454.8 502.99 456.73 498.18 454.02 494.7C448.01 497.7 440.98 499.28 434.56 501.42C423.28 505.18 411.85 509.47 401.18 514.81C398.94 520.86 400.25 528.94 400.25 535.38C400.25 549.41 400.25 563.43 400.25 577.46C400.25 617.36 400.25 657.26 400.25 697.16C400.25 709.94 400.25 722.72 400.25 735.5C400.25 742.04 401.05 749.25 399.78 755.61C394.51 758.12 375.81 756.54 368.92 756.54C351.46 756.54 334.01 756.54 316.55 756.54C307.97 756.54 298.26 757.75 289.9 756.08C287.92 751.93 288.96 745.77 288.96 741.11C288.96 730.2 288.96 719.29 288.96 708.38C288.96 679.39 288.96 650.4 288.96 621.41C288.96 612.06 288.96 602.71 288.96 593.36C288.96 588.29 289.48 582.85 288.5 577.93C281.6 579.41 274.15 588.17 268.36 592.39C257.48 600.33 247.34 609.74 237.53 619.54C234.48 622.59 230.86 625.52 228.18 628.89C225.76 631.94 222.56 634.66 220.26 637.81C218.81 639.79 217.49 642.79 215.55 644.33C214.24 645.37 212.71 645.6 211.35 646.66C210.81 648.12 210.77 649.76 210.24 651.16C209.27 653.7 206.78 656.11 205.3 658.38C202.56 662.56 200.12 666.9 197.46 671.12C191.11 681.25 187.92 694.14 186.13 705.61C185.18 711.66 185.69 719.54 186.86 725.39C195.35 767.87 234.41 782.78 272.42 790.39C280.19 791.94 288.17 792.69 296.01 793.92C299.35 794.44 302.9 793.46 306.24 793.98C318.8 795.95 333.94 795.95 346.51 793.98C349.85 793.46 353.39 794.44 356.73 793.92C363.87 792.8 371.17 792.29 378.3 791.17C380.12 790.89 382.04 791.4 383.85 791.12C402.28 788.23 420.56 784.35 438.88 780.68C451.8 778.1 464.4 773.56 477.22 770.4C482.43 769.11 487.33 766.42 492.54 765.14C505.71 761.88 518.73 756.55 531.46 751.69C536.17 749.9 540.79 747.87 545.49 746.08C547.17 745.44 548.77 744.04 550.52 743.63C552.7 743.11 555.21 743.38 557.36 742.98C557.04 746.96 554.82 746.67 551.77 748.62C546.12 752.25 539.71 754.6 533.65 757.63C507.96 770.47 481.33 781.34 454.2 790.39C416.92 802.81 379.34 813.14 340.84 819.17C327.51 821.26 313.94 821.76 300.62 823.85C296.68 824.47 292.47 823.29 288.53 823.91C280.87 825.1 272.99 824.81 265.12 824.81C250.19 824.81 235.65 824.31 221.14 822.03C217.73 821.5 214.31 821.6 210.91 821.04C180.48 816.06 141.92 801.14 123 775.22C111.44 759.37 106.38 738.77 109.38 719.58C109.67 717.76 109.16 715.84 109.44 714.02C111.01 704.01 114.98 694.29 118.59 684.83C123.08 673.05 129.64 661.03 137.03 650.9C138.63 648.71 140.52 645.05 142.61 643.39C144.08 642.22 146.68 641.87 147.55 639.91C148.11 638.64 147.6 637.23 148.25 635.94C148.81 634.82 150.26 634.09 151 633.07C156.35 625.74 163.61 620.11 169.26 613C172.81 608.53 176.49 604.86 180.95 601.31C185.12 598 188.32 593.66 192.61 590.52C194.91 588.85 196.42 586.12 198.72 584.47C201.23 582.68 204.86 582.21 206.96 579.62C207.73 578.68 207.76 577.51 208.54 576.53C210.28 574.34 213.73 572.54 215.99 570.89C220.82 567.36 225.24 563.25 230.08 559.72C237.68 554.18 245.52 548.93 253.4 543.77C255.53 542.37 257.69 540.2 260 539.15C260.95 538.72 262.18 538.93 263.04 538.45C263.82 538.01 264.01 536.94 264.68 536.34C266.75 534.47 269.82 533.2 272.16 531.67C275.87 529.24 286.62 524.55 288.47 520.85C290.03 517.73 288.96 503.24 288.96 498.91C288.96 481.14 288.96 463.37 288.96 445.6C288.96 439.64 287.5 428.18 289.9 423.16C292.48 421.15 295.58 421.76 298.78 421.76C305.02 421.76 311.25 421.76 317.49 421.76C335.57 421.76 353.65 421.76 371.73 421.76C380.6 421.76 390.67 420.5 399.31 422.22C401.78 428.86 400.25 447.86 400.25 455.89C400.25 459.84 399.51 464.53 401.18 468.05C406.63 468.78 412.49 464.59 417.72 463.08C425.46 460.85 433.22 457.54 441.1 455.6C445.69 454.47 450.53 453.33 454.96 451.68C457.17 447.26 456.36 442.06 456.36 437.19C456.36 427.21 456.36 417.24 456.36 407.26C456.36 381.08 456.36 354.89 456.36 328.71C456.36 317.69 454.81 299.02 456.83 288.96C462.09 286.45 480.8 288.03 487.69 288.03C505.14 288.03 522.6 288.03 540.05 288.03C548.63 288.03 558.35 286.83 566.71 288.5C568.28 291.8 567.64 296 567.64 299.72C567.64 307.2 567.64 314.68 567.64 322.16C567.64 346.79 567.64 371.41 567.64 396.04C567.64 404.07 566.11 423.07 568.58 429.71C575.49 431.09 582.79 429.86 589.62 429.24C598.99 428.39 608.94 430.61 618.14 428.77C620.52 423.79 619.08 415.66 619.08 410.07C619.08 396.04 619.08 382.01 619.08 367.99C619.08 321.54 619.08 275.09 619.08 228.65C619.08 214.93 619.08 201.22 619.08 187.5C619.08 181.32 617.85 173.67 620.01 167.86C626.34 164.7 639.33 166.46 646.66 166.46C667.24 166.46 687.81 166.46 708.38 166.46C714.98 166.46 732.28 164.97 737.37 167.39ZM931.89 486.28C935.25 497.61 932.35 509.82 932.35 521.35C932.35 546.29 932.35 571.23 932.35 596.16C932.35 604.89 932.35 613.62 932.35 622.35C932.35 625.95 933.21 630.19 930.95 633.1C923.51 630.19 913.75 621.64 907.08 616.77C899.66 611.36 890.71 606.88 884.19 600.37C878.55 601.59 875.02 609.78 872.01 614.37C863.58 627.24 853.94 639.37 844.89 651.78C834.97 665.37 823.11 677.45 812.65 690.62C810.61 693.18 807.03 697.35 804.21 699C802.78 699.84 801.2 700.03 800.2 701.55C795.83 708.22 789.51 715.05 783.2 720.07C775.39 726.28 769.3 734.33 761.25 740.21C758.77 742.01 757.12 744.89 754.64 746.7C747.5 751.91 741.22 758.31 734.07 763.53C720.9 773.14 707.63 782.75 693.86 791.58C684.48 797.59 674.66 802.85 665.22 808.77C661.52 811.09 656.28 814.04 652.1 815.28C651.33 815.51 650.4 815.3 649.67 815.66C649.05 815.98 648.9 816.73 648.36 817.15C644.26 820.34 635.25 824.28 630.3 826.21C620.32 830.12 610.68 834.85 600.66 838.66C583.93 845.04 566.89 850.64 549.58 854.91C532.98 859.01 516.67 864.11 499.81 866.86C487.37 868.9 474.85 870.53 462.41 872.47C460.28 872.81 458.04 872.2 455.92 872.53C447.57 873.84 438.97 873.97 430.61 875.28C426.97 875.85 423.09 874.98 419.42 875.31C418.04 875.44 416.99 876.01 415.65 876.22C410.18 877.07 404.35 875.74 398.85 876.24C385.85 877.43 371.58 878.31 358.6 876.27C350.64 875.03 342.22 876.58 334.29 875.34C326.02 874.04 317.36 875.64 309.1 874.35C300.44 872.99 291.51 872.95 282.86 871.6C281.04 871.31 279.12 871.84 277.3 871.54C275.26 871.2 273.67 869.52 271.66 869.11C267.96 868.36 264.36 870.28 260.47 869.67C245.83 867.38 231.08 865.57 216.46 863.18C208.75 861.92 201.12 861.19 193.58 858.94C199.08 857.84 205.22 858.48 210.88 858.48C222.1 858.48 233.32 858.48 244.54 858.48C248.44 858.48 252.83 859.05 256.67 858.45C271.42 856.14 286.88 858.01 301.62 855.7C305.57 855.08 309.77 856.26 313.72 855.64C326.73 853.6 340.04 853.06 353.05 851.02C355.17 850.69 357.42 851.3 359.54 850.97C373.55 848.77 387.61 846.71 401.62 844.42C412.71 842.61 423.55 839.35 434.56 837.14C445.46 834.96 456.12 831.98 466.94 829.31C471.49 828.19 475.83 826.11 480.38 824.99C493.48 821.75 506.65 817.31 519.31 812.48C528.72 808.89 537.95 804.84 547.36 801.26C551.97 799.5 556.2 796.82 560.8 795.06C582.11 786.94 603.27 775.3 622.49 763.24C634.39 755.78 646.97 749.37 658.32 741.08C668.25 733.84 678.33 726.81 688.25 719.58C697.01 713.18 704.74 705.39 713.5 699C721.85 692.91 728.34 684.42 736.44 677.99C743.29 672.55 749.37 666 755.61 659.76C764.7 650.66 773.87 641.68 781.79 631.7C783.83 629.13 786.84 627.31 788.78 624.66C792.82 619.12 797.83 614.3 801.87 608.76C809.47 598.34 817.69 588.39 825.31 577.96C828.19 574 831.55 570.4 834.16 566.24C832.28 561.42 829.24 557.7 826.24 553.59C820.99 546.39 816.1 538.64 811.22 531.2C808.61 527.21 803.11 522 803.77 517.14C846.48 506.86 889.18 496.57 931.89 486.28Z" fill="#ffffff" fill-rule="evenodd" stroke="#ffffff" stroke-width="0.25" stroke-linejoin="round"/>
</svg>